<svg width="150" height="131" viewBox="0 0 150 131" fill="none" xmlns="http://www.w3.org/2000/svg">
<path d="M132.629 80.4774C132.629 100.837 117.72 112.189 100.205 119.634C81.0152 127.791 58.6248 127.75 40.2106 118.037C23.9968 109.485 10.0893 96.647 10.0893 76.7558C10.0893 74.5055 10.0434 71.6222 9.99042 68.3005C9.83823 58.7528 9.62832 45.5838 10.2862 33.4174C10.8512 22.9672 15.4012 15.9011 21.7912 12.9555C28.1834 10.0089 36.5784 11.1112 44.9898 17.3435C49.3611 20.5823 53.8427 23.7608 58.3059 26.129C62.7668 28.496 67.2502 30.0764 71.6232 30.0764C78.0857 30.0764 84.6129 26.1764 90.9362 21.4123C100.474 14.2264 109.986 12.4526 117.337 15.3239C124.673 18.1897 130.03 25.7528 131.122 37.6267C132.629 54.0083 132.629 71.5551 132.629 80.4774Z" fill="#FFF4F4" stroke="black"/>
<path d="M35.3352 71.0389C38.61 79.1869 24.9486 73.8122 9.59771 80.2827C8.57432 55.3993 8.34777 4.07573 17.0466 1.67925C19.136 0.680725 27.1781 1.9189 42.6314 14.8598C48.0468 19.533 64.1083 27.9411 72.2915 29.6218L70.8397 35.2641L68.4538 43.1742C67.3632 46.7902 64.6923 49.7208 62.2774 52.6247C61.5742 53.4702 60.8548 54.4232 60.0291 55.5022C56.1007 60.6356 33.3788 66.1713 35.3352 71.0389Z" fill="#A3670D"/>
<path d="M107.104 72.2908C104.143 80.5378 117.59 74.7327 133.18 80.712C133.248 55.8113 131.505 4.51177 122.72 2.39288C120.593 1.46129 112.604 2.95399 97.6564 16.3776C92.5836 20.1714 86.0297 24.7537 80.0656 27.3829C78.5167 28.0657 77.4393 29.5558 77.4393 31.252L77.4393 37.9052L77.468 38.3598C77.8574 44.5226 81.8166 49.9312 85.7545 54.7121C89.8774 59.7177 108.872 67.3641 107.104 72.2908Z" fill="#A3670D"/>
<path d="M101.461 38.2654C92.5916 36.2485 88.2624 27.661 87.2065 23.6193C89.3118 21.7643 93.146 19.7777 93.146 18.4819C108.192 1.29004 119.528 0.226001 121.787 1.29008C130.445 2.73067 132.61 36.4646 132.61 53.1515C125.923 49.0298 110.331 40.2822 101.461 38.2654Z" fill="black" stroke="black"/>
<path d="M57.009 106.625C61.1794 115.325 72.8239 127.506 86.0383 106.625C81.5681 109.876 69.5039 114.429 57.009 106.625Z" fill="#AC4E4E"/>
<path d="M63.798 111.827C62.9736 110.992 62.7425 109.876 62.73 109.423C63.3016 109.471 64.3285 109.621 63.8629 109.837C63.3973 110.053 63.6256 111.254 63.798 111.827Z" fill="white"/>
<path d="M77.072 112.221C78.0171 111.526 78.3139 110.532 78.3442 110.122C77.7081 110.122 76.5632 110.18 77.072 110.412C77.5809 110.643 77.2841 111.714 77.072 112.221Z" fill="white"/>
<path d="M49.9144 99.0382L0.102051 93.4861" stroke="#A19FA0"/>
<path d="M50.0161 98.9805L0 99.7999" stroke="#A19FA0"/>
<path d="M50.1178 99.162L0.350586 105.289" stroke="#A19FA0"/>
<path d="M50.3211 98.9387L1.18164 110.327" stroke="#A19FA0"/>
<path d="M100.086 99.9355L149.898 94.3833" stroke="#A19FA0"/>
<path d="M99.9839 99.8777L150 100.697" stroke="#A19FA0"/>
<path d="M99.8822 100.059L149.649 106.187" stroke="#A19FA0"/>
<path d="M99.6789 99.836L148.818 111.225" stroke="#A19FA0"/>
<path d="M52.0368 75.355C47.7163 81.724 42.646 84.0355 32.5951 83.971C24.7414 79.6751 20.7911 75.5744 19.2957 68.2718C23.5304 61.5596 28.3193 57.7265 36.8561 59.5734C45.3929 61.4202 49.7217 66.9013 52.0368 75.355Z" fill="#D9D9D9"/>
<path d="M46.4097 81.2429C49.8453 77.6741 47.8411 68.2847 46.4096 64.5141C36.79 55.592 27.991 59.1503 24.6509 61.8056C20.6427 65.1195 20.7858 71.365 21.3584 74.0734C23.3053 78.6619 28.3033 83.4734 32.8104 84.1107C39.469 85.0522 44.6442 82.4113 46.4097 81.2429Z" fill="#A6BC4E"/>
<path d="M45.2071 75.0294C45.2871 71.0343 41.9146 64.5141 37.6201 64.5141C31.4647 64.5141 27.7789 70.8633 28.0291 73.7548C28.3526 77.4936 32.1804 81.7209 36.3318 82.6769C42.2009 82.6769 45.154 77.6842 45.2071 75.0294Z" fill="black" stroke="black"/>
<path d="M89.9275 75.3862C94.2481 81.7552 99.3183 84.0667 109.369 84.0022C117.223 79.7063 121.173 75.6056 122.669 68.303C118.434 61.5908 113.645 57.7577 105.108 59.6046C96.5715 61.4514 92.2426 66.9324 89.9275 75.3862Z" fill="#D9D9D9"/>
<path d="M95.5544 81.2741C92.1188 77.7053 94.123 68.3159 95.5545 64.5453C105.174 55.6232 113.973 59.1814 117.313 61.8368C121.321 65.1507 121.178 71.3961 120.606 74.1046C118.659 78.6931 113.661 83.5046 109.154 84.1419C102.495 85.0834 97.3199 82.4425 95.5544 81.2741Z" fill="#A6BC4E"/>
<path d="M96.757 75.0605C96.6771 71.0654 100.049 64.5452 104.344 64.5452C110.499 64.5452 114.185 70.8944 113.935 73.7859C113.611 77.5247 109.784 81.752 105.632 82.708C99.7632 82.708 96.8101 77.7153 96.757 75.0605Z" fill="black" stroke="black"/>
<path d="M70.4993 98.6637C64.4529 99.626 61.0849 89.709 60.1567 84.6302C66.7336 84.6302 71.0297 93.9859 70.4993 98.6637C75.485 86.1539 80.0905 85.4321 81.7701 86.635C80.1789 97.0064 73.5933 98.9756 70.4993 98.6637Z" fill="#E7B5B5"/>
<path d="M70.6319 98.5301C69.4386 93.0503 63.6927 87.2756 60.1567 84.6471C70.2341 79.9426 78.853 84.0234 81.9027 86.6519C75.2198 86.9727 72.6209 94.3869 70.6319 98.5301Z" fill="#ECA2A2"/>
<path d="M15.7865 37.3522C13.0285 27.7293 16.9357 14.364 19.234 8.88429C28.5159 6.47855 41.7756 24.1206 44.0297 29.0658C45.833 33.0219 25.1125 37.2186 15.7865 37.3522Z" fill="#E7B5B5"/>
<path d="M123.831 37.1754C126.589 27.5524 122.682 14.1872 120.384 8.70747C111.102 6.30173 97.8424 23.9438 95.5882 28.889C93.7849 32.8451 114.505 37.0417 123.831 37.1754Z" fill="#E7B5B5"/>
</svg>
