<svg width="124" height="109" viewBox="0 0 124 109" fill="none" xmlns="http://www.w3.org/2000/svg">
<ellipse cx="62" cy="50.5" rx="51" ry="50.5" fill="#BB5252"/>
<path d="M46.924 64.584C45.26 66.76 41.292 67.208 38.796 66.056C37.964 65.608 37.196 64.968 36.748 64.136C35.66 62.344 35.724 60.104 35.788 58.056C33.868 58.184 31.884 58.184 29.964 57.928C28.684 57.8 27.404 57.48 26.444 56.712C25.612 56.008 25.1 54.92 24.844 53.832C24.46 51.976 24.588 49.672 25.74 48.136C26.956 46.6 29.132 45.768 31.052 45.704C32.716 45.576 34.38 45.64 36.108 45.64C36.044 43.784 36.044 41.8 36.556 39.944C36.94 38.344 38.156 36.744 39.628 35.976C41.548 35.016 44.492 35.144 46.028 36.616C47.052 37.512 47.692 38.92 47.884 40.264C48.204 42.056 48.012 43.912 47.82 45.704C49.804 45.64 51.788 45.64 53.772 46.024C55.18 46.28 56.652 46.856 57.676 47.816C59.724 49.864 60.108 53.768 58.316 56.072C57.292 57.352 55.692 58.12 54.156 58.44C52.236 58.76 50.188 58.632 48.268 58.632C48.332 60.68 48.14 62.984 46.924 64.584ZM90.388 68.168C88.34 69.576 85.396 69.64 82.964 69.064C81.556 68.744 80.148 68.168 79.188 67.08C78.228 65.928 77.844 64.328 77.78 62.856C77.652 60.488 77.844 58.12 77.844 55.752C77.332 55.752 74.196 55.944 73.684 55.944C71.188 56.136 68.692 56.328 66.26 55.88C65.364 55.688 64.468 55.304 63.828 54.664C62.292 53.192 61.46 50.76 61.524 48.584C61.588 46.152 62.484 43.784 63.7 41.608C65.108 39.176 66.772 36.872 68.5 34.632C70.804 31.432 73.3 28.36 76.116 25.608C79.572 22.28 86.228 19.72 90.26 22.408C91.156 22.984 91.988 23.944 92.436 24.968C93.972 28.168 93.908 32.008 93.78 35.528C93.652 38.152 93.588 40.712 93.332 43.336C94.804 43.336 96.404 43.592 97.492 44.552C99.284 46.088 99.86 50.12 98.964 52.36C98.58 53.384 97.812 54.28 96.852 54.856C95.764 55.496 94.548 55.752 93.332 55.88C93.396 59.016 93.396 62.216 92.436 65.224C92.116 66.376 91.412 67.528 90.388 68.168ZM75.156 45.64C75.924 45.896 76.884 45.576 77.588 45.128C79.636 43.848 81.172 41.544 81.748 39.24C82.004 38.088 82.004 36.04 80.98 35.464C80.212 34.952 79.06 35.336 78.228 35.784C75.732 37.32 73.236 41.416 74.004 44.232C74.132 44.808 74.58 45.448 75.156 45.64Z" fill="white"/>
</svg>
