<svg width="320" height="213" viewBox="0 0 320 213" fill="none" xmlns="http://www.w3.org/2000/svg">
<path d="M246.576 131.377C246.576 170.193 216.774 189.16 185.807 201.205C164.507 209.489 140.427 209.484 119.84 199.628C91.0083 185.823 62.8517 163.419 62.8517 125.259C62.8517 121.567 62.783 116.834 62.7039 111.378C62.4971 97.1167 62.2188 77.9212 62.9082 59.5133C63.3847 46.7916 64.3229 34.4693 66.0625 24.4358C66.9323 19.4188 68.0003 14.9873 69.3054 11.3701C70.5863 7.81982 72.0809 5.0959 73.8052 3.36583C79.0035 2.53098 84.8815 4.76917 91.2826 8.74155C97.5458 12.6284 104.207 18.1084 111.091 23.7712C111.297 23.9401 111.502 24.1092 111.708 24.2785C118.797 30.1089 126.109 36.0825 133.398 40.5961C140.682 45.1067 148.002 48.1982 155.108 48.1982C161.708 48.1982 168.351 45.1855 174.91 40.7803C181.473 36.3723 188.016 30.5255 194.41 24.7824L194.801 24.432C201.073 18.7983 207.198 13.297 213.107 9.31411C219.08 5.28748 224.742 2.87692 230.036 3.37797C232.02 5.4324 233.787 8.46931 235.352 12.3063C236.946 16.2179 238.318 20.93 239.496 26.215C241.853 36.7851 243.426 49.6032 244.476 62.802C246.575 89.1975 246.576 117.055 246.576 131.377Z" fill="#FFF4F4" stroke="black"/>
<path d="M133.017 117.355C138.069 130.775 86.4413 121.105 62.7587 131.762C61.1799 90.7781 60.3905 5.65248 73.8106 1.70537C77.0341 0.0607511 89.4411 2.10008 113.282 23.4144C121.636 31.1112 141.385 46.3076 153.542 46.3076V77.4896C149.198 79.8998 143.826 85.1864 140.122 90.3542C134.061 98.8091 129.999 109.338 133.017 117.355Z" fill="black" stroke="black"/>
<path d="M175.843 117.947C170.791 131.367 222.419 119.921 246.891 130.973C248.47 89.9887 244.72 3.28423 229.919 1.70532C226.695 0.0606951 219.222 -0.465513 195.381 20.8488C187.027 28.5456 165.699 46.356 153.542 46.356V77.3407C164.331 83.3271 180.895 104.527 175.843 117.947Z" fill="black" stroke="black"/>
<path d="M119.202 171.43C147.227 160.66 177.224 165.002 189.263 171.43C181.773 185.076 168.926 195.118 156.107 195C137.515 194.829 119.202 179.19 119.202 171.43Z" fill="#AC4E4E"/>
<path d="M137.458 171.729C134.963 170.473 133.596 168.045 133.224 166.989C134.552 166.608 136.986 166.074 136.098 166.986C135.21 167.897 136.634 170.527 137.458 171.729Z" fill="white"/>
<path d="M169.761 170.904C172.277 169.692 173.686 167.289 174.076 166.238C172.755 165.835 170.331 165.259 171.203 166.186C172.075 167.113 170.605 169.717 169.761 170.904Z" fill="white"/>
<path d="M122.828 148.507L0.250488 137.288" stroke="#868383"/>
<path d="M123.079 148.385L0 150.04" stroke="#868383"/>
<path d="M123.329 148.752L0.863037 161.128" stroke="#868383"/>
<path d="M123.829 148.301L2.90796 171.303" stroke="#868383"/>
<path d="M197.172 148.507L319.749 137.288" stroke="#868383"/>
<path d="M196.921 148.385L320 150.04" stroke="#868383"/>
<path d="M196.671 148.752L319.137 161.128" stroke="#868383"/>
<path d="M196.171 148.301L317.092 171.303" stroke="#868383"/>
<path d="M124.687 110.062C118.731 117.951 111.741 120.814 97.8839 120.735C87.0564 115.413 81.6102 110.334 79.5486 101.288C85.3868 92.9732 91.9891 88.2251 103.758 90.5129C115.528 92.8006 121.496 99.59 124.687 110.062Z" fill="#D9D9D9"/>
<path d="M116.93 117.355C121.666 112.935 118.903 101.304 116.93 96.633C103.667 85.5812 91.5366 89.9888 86.9317 93.278C81.4058 97.383 81.6031 105.119 82.3926 108.474C85.0766 114.158 91.9672 120.118 98.1809 120.908C107.361 122.074 114.496 118.803 116.93 117.355Z" fill="#A6BC4E"/>
<path d="M115.272 109.658C115.382 104.71 110.733 96.633 104.812 96.633C96.3257 96.633 91.2442 104.498 91.5892 108.08C92.0352 112.711 97.3124 117.947 103.036 119.131C111.127 119.131 115.198 112.947 115.272 109.658Z" fill="black" stroke="black"/>
<path d="M183.677 109.667C189.633 117.556 196.623 120.42 210.48 120.34C221.308 115.018 226.754 109.939 228.815 100.893C222.977 92.5785 216.375 87.8304 204.606 90.1181C192.836 92.4059 186.868 99.1953 183.677 109.667Z" fill="#D9D9D9"/>
<path d="M191.434 116.961C186.698 112.54 189.461 100.909 191.434 96.2383C204.696 85.1865 216.827 89.5941 221.432 92.8833C226.958 96.9883 226.761 104.725 225.971 108.08C223.287 113.763 216.397 119.724 210.183 120.513C201.003 121.679 193.868 118.408 191.434 116.961Z" fill="#A6BC4E"/>
<path d="M193.092 109.264C192.982 104.315 197.631 96.2383 203.552 96.2383C212.038 96.2383 217.12 104.103 216.775 107.685C216.329 112.316 211.052 117.553 205.328 118.737C197.237 118.737 193.166 112.552 193.092 109.264Z" fill="black" stroke="black"/>
<path d="M153.542 159.589C144.542 161.01 139.53 146.366 138.148 138.867C147.937 138.867 154.331 152.682 153.542 159.589C160.962 141.117 167.817 140.051 170.317 141.827C167.949 157.142 158.147 160.05 153.542 159.589Z" fill="#E7B5B5"/>
<path d="M153.739 159.392C151.963 151.3 143.411 142.773 138.148 138.892C153.147 131.945 165.975 137.971 170.515 141.852C160.568 142.326 156.7 153.274 153.739 159.392Z" fill="#ECA2A2"/>
<path d="M72.4292 54.3991C68.3242 40.1896 74.1396 20.4541 77.5604 12.3625C91.3753 8.81015 111.111 34.861 114.466 42.1631C117.15 48.0048 86.3098 54.2017 72.4292 54.3991Z" fill="#E7B5B5" stroke="black"/>
<path d="M233.24 54.1381C237.345 39.9285 231.53 20.193 228.109 12.1015C214.294 8.5491 194.559 34.5999 191.204 41.9021C188.52 47.7438 219.36 53.9407 233.24 54.1381Z" fill="#E7B5B5" stroke="black"/>
</svg>
