<svg width="270" height="144" viewBox="0 0 270 144" fill="none" xmlns="http://www.w3.org/2000/svg">
<rect y="3.05176e-05" width="30" height="30" rx="10" fill="#5BB9BA"/>
<rect x="40" y="3.05176e-05" width="30" height="30" rx="10" fill="#965BBA"/>
<rect x="80" y="3.05176e-05" width="30" height="30" rx="10" fill="#BB5252"/>
<rect x="120" y="3.05176e-05" width="30" height="30" rx="10" fill="#ABBA5B"/>
<rect x="160" y="3.05176e-05" width="30" height="30" rx="10" fill="#BB5252"/>
<rect x="200" y="3.05176e-05" width="30" height="30" rx="10" fill="#BB5252"/>
<rect x="240" y="3.05176e-05" width="30" height="30" rx="10" fill="#BB5252"/>
<rect y="114" width="30" height="30" rx="10" fill="#5BB9BA"/>
<rect x="40" y="114" width="30" height="30" rx="10" fill="#965BBA"/>
<rect x="80" y="114" width="30" height="30" rx="10" fill="#ABBA5B"/>
<rect x="120" y="114" width="30" height="30" rx="10" fill="#BB5252"/>
<rect x="160" y="114" width="30" height="30" rx="10" fill="#BB5252"/>
<rect x="200" y="114" width="30" height="30" rx="10" fill="#BB5252"/>
<rect x="240" y="114" width="30" height="30" rx="10" fill="#BB5252"/>
<path d="M135.555 108.117C135.045 109.982 133.12 111.08 131.256 110.57L100.871 102.263C99.0061 101.754 97.9078 99.8288 98.4176 97.9642C98.9273 96.0996 100.852 95.0013 102.717 95.5111L129.726 102.895L137.109 75.8862C137.619 74.0216 139.544 72.9233 141.409 73.4331C143.273 73.9428 144.371 75.8676 143.862 77.7322L135.555 108.117ZM100.5 33.9999C100.5 39.8506 102.348 46.8996 105.369 54.4442C108.37 61.9393 112.425 69.6722 116.606 76.8195C120.781 83.9573 125.048 90.4517 128.449 95.4696C130.151 97.9806 131.628 100.11 132.78 101.782C133.878 103.376 134.791 104.71 135.219 105.46L129.139 108.929C128.897 108.505 128.208 107.483 127.016 105.753C125.878 104.101 124.376 101.937 122.655 99.3972C119.209 94.3137 114.848 87.6779 110.564 80.354C106.285 73.0395 102.047 64.9791 98.8708 57.0462C95.7143 49.1628 93.5001 41.1493 93.5001 33.9999L100.5 33.9999Z" fill="black"/>
</svg>
