<svg width="124" height="109" viewBox="0 0 124 109" fill="none" xmlns="http://www.w3.org/2000/svg">
<ellipse cx="62" cy="50.5" rx="51" ry="50.5" fill="#BB5252"/>
<path d="M46.8615 64.584C45.1975 66.76 41.2295 67.208 38.7335 66.056C37.9015 65.608 37.1335 64.968 36.6855 64.136C35.5975 62.344 35.6615 60.104 35.7255 58.056C33.8055 58.184 31.8215 58.184 29.9015 57.928C28.6215 57.8 27.3415 57.48 26.3815 56.712C25.5495 56.008 25.0375 54.92 24.7815 53.832C24.3975 51.976 24.5255 49.672 25.6775 48.136C26.8935 46.6 29.0695 45.768 30.9895 45.704C32.6535 45.576 34.3175 45.64 36.0455 45.64C35.9815 43.784 35.9815 41.8 36.4935 39.944C36.8775 38.344 38.0935 36.744 39.5655 35.976C41.4855 35.016 44.4295 35.144 45.9655 36.616C46.9895 37.512 47.6295 38.92 47.8215 40.264C48.1415 42.056 47.9495 43.912 47.7575 45.704C49.7415 45.64 51.7255 45.64 53.7095 46.024C55.1175 46.28 56.5895 46.856 57.6135 47.816C59.6615 49.864 60.0455 53.768 58.2535 56.072C57.2295 57.352 55.6295 58.12 54.0935 58.44C52.1735 58.76 50.1255 58.632 48.2055 58.632C48.2695 60.68 48.0775 62.984 46.8615 64.584ZM90.7095 69.32C88.8535 69.384 77.9095 69 76.0535 69.064C73.1095 69.064 65.4295 69.384 63.4455 67.208C62.8695 66.504 62.7415 65.544 62.6775 64.712C62.4215 62.6 62.3575 60.36 62.8055 58.312C63.2535 56.264 64.0855 54.152 65.6855 52.872C67.5415 51.272 70.1015 50.76 72.3415 49.928C75.1575 48.904 78.1015 47.752 80.2775 45.64C81.2375 44.68 82.0055 43.336 82.1975 41.992C82.3255 40.968 82.2615 39.816 81.8135 38.856C81.4935 38.088 80.9175 37.32 80.2135 36.808C78.9335 35.912 77.2055 35.72 75.6055 35.784C73.1735 35.784 70.8055 36.296 68.3735 36.552C66.9655 36.744 65.3015 36.296 64.2775 35.272C63.5735 34.504 63.1255 33.416 62.9975 32.328C62.8055 30.664 62.5495 29 62.8055 27.4C62.9335 26.312 63.3815 25.16 64.2135 24.52C65.4295 23.432 67.0935 22.92 68.6295 22.6C71.5735 21.96 74.6455 21.896 77.6535 21.768C82.5815 21.576 87.8295 22.856 92.1815 25.352C93.7815 26.184 94.9975 27.784 95.7655 29.448C96.4695 30.92 96.7255 32.52 96.8535 34.12C97.0455 37.384 96.2775 40.776 94.9975 43.72C93.0135 48.136 89.6855 51.976 85.9095 54.984C88.5975 54.728 91.3495 54.28 94.0375 54.536C94.9335 54.6 95.8295 54.792 96.5975 55.24C98.9015 56.648 98.9655 61.32 98.4535 64.008C98.1975 65.16 97.8135 66.376 97.0455 67.336C96.5975 67.912 95.9575 68.36 95.2535 68.616C94.6135 68.808 91.4135 69.256 90.7095 69.32Z" fill="white"/>
</svg>
