<svg width="124" height="109" viewBox="0 0 124 109" fill="none" xmlns="http://www.w3.org/2000/svg">
<ellipse cx="62" cy="50.5" rx="51" ry="50.5" fill="#BB5252"/>
<path d="M53.799 64.584C52.135 66.76 48.167 67.208 45.671 66.056C44.839 65.608 44.071 64.968 43.623 64.136C42.535 62.344 42.599 60.104 42.663 58.056C40.743 58.184 38.759 58.184 36.839 57.928C35.559 57.8 34.279 57.48 33.319 56.712C32.487 56.008 31.975 54.92 31.719 53.832C31.335 51.976 31.463 49.672 32.615 48.136C33.831 46.6 36.007 45.768 37.927 45.704C39.591 45.576 41.255 45.64 42.983 45.64C42.919 43.784 42.919 41.8 43.431 39.944C43.815 38.344 45.031 36.744 46.503 35.976C48.423 35.016 51.367 35.144 52.903 36.616C53.927 37.512 54.567 38.92 54.759 40.264C55.079 42.056 54.887 43.912 54.695 45.704C56.679 45.64 58.663 45.64 60.647 46.024C62.055 46.28 63.527 46.856 64.551 47.816C66.599 49.864 66.983 53.768 65.191 56.072C64.167 57.352 62.567 58.12 61.031 58.44C59.111 58.76 57.063 58.632 55.143 58.632C55.207 60.68 55.015 62.984 53.799 64.584ZM84.847 69.896C81.647 70.856 76.847 69.64 75.183 66.696C73.967 64.52 73.839 61.832 73.967 59.336C74.095 56.648 75.503 41.672 75.823 39.048C75.823 38.856 75.567 38.856 75.439 38.792C74.287 38.536 72.943 38.664 71.791 38.216C70.703 37.832 69.743 37.064 69.167 35.976C68.591 35.016 68.527 33.736 68.591 32.584C68.719 31.048 69.103 29.512 69.807 28.104C70.511 26.632 71.663 25.416 73.135 24.712C74.607 24.008 76.271 23.88 77.807 23.624C78.767 23.496 83.695 22.6 84.591 22.6C85.935 22.536 87.279 22.728 88.431 23.368C89.199 23.816 89.839 24.52 90.223 25.288C90.927 26.632 91.055 28.232 91.055 29.768C91.055 33.864 90.607 38.024 90.479 42.184C90.351 46.856 90.415 51.528 90.415 56.264C90.351 58.824 90.351 61.448 89.903 63.944C89.583 65.352 89.071 66.696 88.175 67.72C87.279 68.744 86.063 69.448 84.847 69.896Z" fill="white"/>
</svg>
