<svg width="299" height="213" viewBox="0 0 299 213" fill="none" xmlns="http://www.w3.org/2000/svg">
<path d="M225.576 131.377C225.576 170.193 195.774 189.16 164.807 201.205C143.507 209.489 119.427 209.484 98.8404 199.628C70.0083 185.823 41.8517 163.419 41.8517 125.259C41.8517 121.567 41.783 116.834 41.7039 111.378C41.4971 97.1167 41.2188 77.9212 41.9082 59.5133C42.3847 46.7916 43.3229 34.4693 45.0625 24.4358C45.9323 19.4188 47.0003 14.9873 48.3054 11.3701C49.5863 7.81982 51.0809 5.0959 52.8052 3.36583C58.0035 2.53098 63.8815 4.76917 70.2826 8.74155C76.5458 12.6284 83.2075 18.1084 90.0914 23.7712C90.2968 23.9401 90.5024 24.1092 90.7081 24.2785C97.7972 30.1089 105.109 36.0825 112.398 40.5961C119.682 45.1067 127.002 48.1982 134.108 48.1982C140.708 48.1982 147.351 45.1855 153.91 40.7803C160.473 36.3723 167.016 30.5255 173.41 24.7824L173.801 24.432C180.073 18.7983 186.198 13.297 192.107 9.31411C198.08 5.28748 203.742 2.87692 209.036 3.37797C211.02 5.4324 212.787 8.46931 214.352 12.3063C215.946 16.2179 217.318 20.93 218.496 26.215C220.853 36.7851 222.426 49.6032 223.476 62.802C225.575 89.1975 225.576 117.055 225.576 131.377Z" fill="#FFF4F4" stroke="black"/>
<path d="M112.017 117.355C117.069 130.775 65.4413 121.105 41.7587 131.762C40.1799 90.7781 39.3905 5.65248 52.8106 1.70537C56.0341 0.0607511 68.4411 2.10008 92.2815 23.4144C100.636 31.1112 120.385 46.3076 132.542 46.3076V77.4896C128.198 79.8998 122.826 85.1864 119.122 90.3542C113.061 98.8091 108.999 109.338 112.017 117.355Z" fill="black" stroke="black"/>
<path d="M154.843 117.947C149.791 131.367 201.419 119.921 225.891 130.973C227.47 89.9887 223.72 3.28423 208.919 1.70532C205.695 0.0606951 198.222 -0.465513 174.381 20.8488C166.027 28.5456 144.699 46.356 132.542 46.356V77.3407C143.331 83.3271 159.895 104.527 154.843 117.947Z" fill="black" stroke="black"/>
<path d="M90.5054 167.37C121.293 173.685 162.342 174.277 175.565 169.344C162.174 182.469 146.413 195.285 132.345 194.605C112.907 193.665 96.3444 174.926 90.5054 167.37Z" fill="#AC4E4E"/>
<path d="M115.171 176.585C113.22 174.586 112.718 171.845 112.711 170.725C114.091 170.797 116.566 171.085 115.429 171.658C114.292 172.231 114.783 175.181 115.171 176.585Z" fill="white"/>
<path d="M149.741 177.614C151.921 175.867 152.753 173.209 152.896 172.098C151.518 172.001 149.027 171.985 150.085 172.692C151.144 173.4 150.297 176.268 149.741 177.614Z" fill="white"/>
<path d="M101.828 148.507L-20.7495 137.288" stroke="#868383"/>
<path d="M102.079 148.385L-21 150.04" stroke="#868383"/>
<path d="M102.329 148.752L-20.137 161.128" stroke="#868383"/>
<path d="M102.829 148.301L-18.092 171.303" stroke="#868383"/>
<path d="M176.172 148.507L298.749 137.288" stroke="#868383"/>
<path d="M175.921 148.385L299 150.04" stroke="#868383"/>
<path d="M175.671 148.752L298.137 161.128" stroke="#868383"/>
<path d="M175.171 148.301L296.092 171.303" stroke="#868383"/>
<path d="M103.687 110.062C97.7309 117.951 90.7407 120.814 76.8839 120.735C66.0564 115.413 60.6102 110.334 58.5486 101.288C64.3868 92.9732 70.9891 88.2251 82.7584 90.5129C94.5277 92.8006 100.496 99.59 103.687 110.062Z" fill="#D9D9D9"/>
<path d="M95.9297 117.355C100.666 112.935 97.9032 101.304 95.9296 96.633C82.6673 85.5812 70.5366 89.9888 65.9317 93.278C60.4058 97.383 60.6031 105.119 61.3926 108.474C64.0766 114.158 70.9672 120.118 77.1809 120.908C86.3608 122.074 93.4956 118.803 95.9297 117.355Z" fill="#A6BC4E"/>
<path d="M94.2718 109.658C94.382 104.71 89.7326 96.633 83.8119 96.633C75.3257 96.633 70.2442 104.498 70.5892 108.08C71.0352 112.711 76.3124 117.947 82.0357 119.131C90.1273 119.131 94.1985 112.947 94.2718 109.658Z" fill="black" stroke="black"/>
<path d="M162.677 109.667C168.633 117.556 175.623 120.42 189.48 120.34C200.308 115.018 205.754 109.939 207.815 100.893C201.977 92.5785 195.375 87.8304 183.606 90.1181C171.836 92.4059 165.868 99.1953 162.677 109.667Z" fill="#D9D9D9"/>
<path d="M170.434 116.961C165.698 112.54 168.461 100.909 170.434 96.2383C183.696 85.1865 195.827 89.5941 200.432 92.8833C205.958 96.9883 205.761 104.725 204.971 108.08C202.287 113.763 195.397 119.724 189.183 120.513C180.003 121.679 172.868 118.408 170.434 116.961Z" fill="#A6BC4E"/>
<path d="M172.092 109.264C171.982 104.315 176.631 96.2383 182.552 96.2383C191.038 96.2383 196.12 104.103 195.775 107.685C195.329 112.316 190.052 117.553 184.328 118.737C176.237 118.737 172.166 112.552 172.092 109.264Z" fill="black" stroke="black"/>
<path d="M132.542 159.589C123.542 161.01 118.53 146.366 117.148 138.867C126.937 138.867 133.331 152.682 132.542 159.589C139.962 141.117 146.817 140.051 149.317 141.827C146.949 157.142 137.147 160.05 132.542 159.589Z" fill="#E7B5B5"/>
<path d="M132.739 159.392C130.963 151.3 122.411 142.773 117.148 138.892C132.147 131.945 144.975 137.971 149.515 141.852C139.568 142.326 135.7 153.274 132.739 159.392Z" fill="#ECA2A2"/>
<path d="M51.4292 54.3991C47.3242 40.1896 53.1396 20.4541 56.5604 12.3625C70.3753 8.81015 90.1107 34.861 93.4657 42.1631C96.1498 48.0048 65.3098 54.2017 51.4292 54.3991Z" fill="#E7B5B5" stroke="black"/>
<path d="M212.24 54.1381C216.345 39.9285 210.53 20.193 207.109 12.1015C193.294 8.5491 173.559 34.5999 170.204 41.9021C167.52 47.7438 198.36 53.9407 212.24 54.1381Z" fill="#E7B5B5" stroke="black"/>
</svg>
