<svg width="124" height="109" viewBox="0 0 124 109" fill="none" xmlns="http://www.w3.org/2000/svg">
<ellipse cx="62" cy="50.5" rx="51" ry="50.5" fill="#BB5252"/>
<path d="M47.3615 64.584C45.6975 66.76 41.7295 67.208 39.2335 66.056C38.4015 65.608 37.6335 64.968 37.1855 64.136C36.0975 62.344 36.1615 60.104 36.2255 58.056C34.3055 58.184 32.3215 58.184 30.4015 57.928C29.1215 57.8 27.8415 57.48 26.8815 56.712C26.0495 56.008 25.5375 54.92 25.2815 53.832C24.8975 51.976 25.0255 49.672 26.1775 48.136C27.3935 46.6 29.5695 45.768 31.4895 45.704C33.1535 45.576 34.8175 45.64 36.5455 45.64C36.4815 43.784 36.4815 41.8 36.9935 39.944C37.3775 38.344 38.5935 36.744 40.0655 35.976C41.9855 35.016 44.9295 35.144 46.4655 36.616C47.4895 37.512 48.1295 38.92 48.3215 40.264C48.6415 42.056 48.4495 43.912 48.2575 45.704C50.2415 45.64 52.2255 45.64 54.2095 46.024C55.6175 46.28 57.0895 46.856 58.1135 47.816C60.1615 49.864 60.5455 53.768 58.7535 56.072C57.7295 57.352 56.1295 58.12 54.5935 58.44C52.6735 58.76 50.6255 58.632 48.7055 58.632C48.7695 60.68 48.5775 62.984 47.3615 64.584ZM85.5775 70.088C82.3775 70.792 78.9855 70.728 75.7215 70.344C72.6495 70.024 69.6415 69.512 66.8255 68.296C65.3535 67.656 63.7535 66.76 62.9855 65.352C61.5135 62.6 62.2175 58.12 64.7135 56.2C65.6735 55.432 66.9535 55.048 68.1055 55.048C71.5615 55.048 74.6975 56.904 78.0255 57.608C80.0095 58.056 82.3775 58.12 84.1695 57.096C86.5375 55.688 86.0895 52.296 83.5295 51.208C82.6335 50.888 78.2815 50.76 77.3215 50.632C76.1695 50.44 74.9535 49.928 74.2495 48.968C73.2895 47.752 73.1615 45.896 73.3535 44.36C73.4815 43.336 73.8655 42.184 74.6975 41.608C76.2335 40.52 78.4735 41.16 80.0735 40.2C80.8415 39.816 81.2895 38.984 81.4815 38.152C81.7375 37.064 81.2255 35.976 80.2015 35.784C79.1775 35.528 78.1535 35.528 77.1295 35.592C75.2095 35.72 73.2895 36.04 71.3695 36.04C70.2175 36.104 68.9375 35.976 67.9775 35.4C65.4815 33.992 65.0975 29.768 65.9295 27.016C66.2495 26.12 66.7615 25.224 67.4655 24.584C68.4895 23.752 69.8335 23.304 71.1135 23.112C72.9695 22.728 74.8255 22.792 76.6815 22.792C79.1135 22.792 81.5455 22.792 83.9775 22.984C86.2175 23.176 88.5855 23.624 90.4415 24.776C91.9775 25.736 93.1935 27.208 93.8975 28.808C94.8575 31.112 94.9855 33.8 94.4735 36.168C93.9615 38.792 92.8095 41.352 91.2095 43.464C93.0655 43.784 94.9215 44.808 96.0735 46.28C97.4815 48.008 98.1855 50.376 98.3135 52.616C98.6335 56.712 97.4175 61.128 94.9855 64.52C92.9375 67.528 89.1615 69.32 85.5775 70.088Z" fill="white"/>
</svg>
