<svg width="324" height="352" viewBox="0 0 324 352" fill="none" xmlns="http://www.w3.org/2000/svg">
<path d="M309.783 82.0622C309.783 94.9962 302.018 103.203 291.742 108.912C273.447 119.076 249.736 118.875 232.474 107.1C223.028 100.657 215.868 91.7493 215.868 79.1865C215.868 77.4434 215.832 75.214 215.792 72.6469C215.705 67.207 215.595 60.2504 215.746 53.1897C215.971 42.6699 219.904 36.0424 225.816 33.4021C231.752 30.7512 239.891 32.0215 248.73 37.7747C253.473 40.8623 258.332 43.2297 263.028 43.2297C265.542 43.2297 268.057 42.4651 270.541 41.25C281.373 35.9509 290.738 34.1622 297.514 36.5754C304.22 38.9632 308.585 45.5491 309.243 57.5224C309.783 67.3588 309.783 76.715 309.783 82.0622Z" fill="#FFF4F4" stroke="black"/>
<path d="M235.148 74.7688C237.664 81.065 227.168 76.9118 215.374 81.9117C214.588 62.6837 214.414 23.0247 221.097 21.1729C222.702 20.4013 228.881 21.3581 240.754 31.3579C244.915 34.9689 257.255 41.4661 263.542 42.7648L262.426 47.1248L260.978 51.9552C259.894 55.5692 257.31 58.6084 255.009 61.5979C254.727 61.9638 254.434 62.3516 254.121 62.7632C251.102 66.7299 233.645 71.0075 235.148 74.7688Z" fill="#A3670D"/>
<path d="M290.287 75.7362C288.013 82.1088 298.344 77.6232 310.322 82.2435C310.374 63.0021 309.035 23.3616 302.285 21.7243C300.651 21.0045 294.513 22.1579 283.029 32.5306C279.298 35.3368 274.525 38.7013 270.104 40.766C268.572 41.4814 267.496 42.9695 267.496 44.6637L267.496 49.1656L267.52 49.5413C267.818 54.2901 270.861 58.4611 273.885 62.1527C277.052 66.0207 291.646 71.9292 290.287 75.7362Z" fill="#A3670D"/>
<path d="M285.952 49.4439C279.138 47.8854 275.812 41.2496 275 38.1265C276.618 36.6931 279.564 35.158 279.564 34.1567C291.124 20.8721 299.833 20.0499 301.569 20.8722C308.221 21.9853 309.884 48.0524 309.884 60.9468C304.746 57.7619 292.767 51.0024 285.952 49.4439Z" fill="black" stroke="black"/>
<path d="M246.023 102.267C251.935 104.834 274.103 104.969 278.94 102.267C274.412 108.419 267.751 115.573 261.877 115.374C254.333 115.119 247.824 106.047 246.023 102.267Z" fill="#AC4E4E"/>
<path d="M257.015 105.476C256.382 104.83 256.204 103.968 256.195 103.618C256.634 103.655 257.423 103.772 257.065 103.939C256.707 104.106 256.883 105.033 257.015 105.476Z" fill="white"/>
<path d="M267.483 105.51C268.209 104.973 268.437 104.205 268.46 103.888C267.972 103.888 267.092 103.933 267.483 104.112C267.874 104.291 267.646 105.118 267.483 105.51Z" fill="white"/>
<path d="M246.349 96.4046L208.078 92.1143" stroke="black"/>
<path d="M246.427 96.36L208 96.9931" stroke="black"/>
<path d="M246.506 96.5003L208.27 101.235" stroke="black"/>
<path d="M246.661 96.3277L208.908 105.128" stroke="black"/>
<path d="M284.896 97.0979L323.167 92.8076" stroke="black"/>
<path d="M284.817 97.0533L323.245 97.6865" stroke="black"/>
<path d="M284.739 97.1936L322.975 101.928" stroke="black"/>
<path d="M284.583 97.021L322.337 105.821" stroke="black"/>
<path d="M251.742 77.047C248.422 81.9685 244.527 83.7546 236.805 83.7048C230.771 80.3852 227.736 77.2165 226.587 71.5736C229.84 66.387 233.52 63.4251 240.078 64.8522C246.637 66.2793 249.963 70.5146 251.742 77.047Z" fill="#D9D9D9"/>
<path d="M247.418 81.5967C250.058 78.839 248.518 71.5836 247.418 68.67C240.027 61.7757 233.267 64.5252 230.701 66.5771C227.621 69.1378 227.731 73.9638 228.171 76.0567C229.667 79.6023 233.507 83.3203 236.97 83.8128C242.086 84.5403 246.062 82.4996 247.418 81.5967Z" fill="#A6BC4E"/>
<path d="M246.494 76.7954C246.555 73.7083 243.964 68.67 240.665 68.67C235.936 68.67 233.104 73.5762 233.296 75.8105C233.545 78.6996 236.486 81.9661 239.675 82.7048C244.184 82.7048 246.453 78.8468 246.494 76.7954Z" fill="black" stroke="black"/>
<path d="M277.091 78.128C280.411 83.0495 284.306 84.8357 292.028 84.7858C298.062 81.4663 301.097 78.2976 302.246 72.6547C298.993 67.468 295.313 64.5061 288.755 65.9332C282.196 67.3603 278.87 71.5956 277.091 78.128Z" fill="#D9D9D9"/>
<path d="M281.414 82.6778C278.775 79.9201 280.315 72.6646 281.414 69.751C288.805 62.8567 295.565 65.6062 298.132 67.6581C301.211 70.2188 301.101 75.0448 300.661 77.1377C299.166 80.6834 295.326 84.4013 291.863 84.8938C286.747 85.6213 282.771 83.5806 281.414 82.6778Z" fill="#A6BC4E"/>
<path d="M282.338 77.8764C282.277 74.7892 284.868 69.751 288.168 69.751C292.897 69.751 295.729 74.6571 295.536 76.8915C295.288 79.7805 292.347 83.0471 289.157 83.7858C284.648 83.7858 282.379 79.9278 282.338 77.8764Z" fill="black" stroke="black"/>
<path d="M262.165 96.1152C257.519 96.8588 254.932 89.1957 254.219 85.2712C259.272 85.2712 262.572 92.5006 262.165 96.1152C265.995 86.4486 269.534 85.8909 270.824 86.8204C269.602 94.8346 264.542 96.3562 262.165 96.1152Z" fill="#E7B5B5"/>
<path d="M262.267 96.012C261.35 91.7776 256.935 87.3154 254.219 85.2843C261.961 81.6489 268.583 84.8023 270.926 86.8334C265.792 87.0813 263.795 92.8104 262.267 96.012Z" fill="#ECA2A2"/>
<path d="M220.129 48.7384C218.01 41.3025 221.012 30.9748 222.778 26.7405C229.909 24.8815 240.097 38.514 241.828 42.3352C243.214 45.3922 227.294 48.6351 220.129 48.7384Z" fill="#E7B5B5"/>
<path d="M303.139 48.6017C305.258 41.1658 302.256 30.8382 300.491 26.6039C293.359 24.7449 283.172 38.3774 281.44 42.1986C280.055 45.2556 295.974 48.4985 303.139 48.6017Z" fill="#E7B5B5"/>
<path d="M242.134 275.228C242.134 310.74 215.515 328.523 187.232 339.854C166.021 348.352 141.844 348.336 121.387 338.223C95.063 325.21 69.955 304.375 69.955 269.492C69.955 266.031 69.8906 261.593 69.8164 256.478C69.6226 243.108 69.3617 225.114 70.008 207.857C70.4546 195.931 71.3342 184.381 72.9647 174.976C73.78 170.274 74.7808 166.121 76.0035 162.733C77.2019 159.411 78.5989 156.865 80.2077 155.247C85.0668 154.471 90.5656 156.564 96.5613 160.284C102.431 163.927 108.675 169.063 115.129 174.373C115.322 174.531 115.514 174.689 115.707 174.848C122.353 180.313 129.209 185.915 136.044 190.148C142.875 194.378 149.743 197.28 156.414 197.28C162.611 197.28 168.845 194.451 174.996 190.32C181.151 186.186 187.286 180.703 193.281 175.319L193.646 174.991C199.527 169.709 205.268 164.553 210.805 160.82C216.399 157.049 221.696 154.795 226.644 155.259C228.498 157.181 230.15 160.021 231.614 163.611C233.108 167.276 234.393 171.692 235.497 176.646C237.706 186.553 239.181 198.569 240.165 210.942C242.134 235.686 242.134 261.802 242.134 275.228Z" fill="#FFF4F4" stroke="black"/>
<path d="M135.704 262.083C140.44 274.664 92.0391 265.598 69.8367 275.59C68.3565 237.167 67.6164 157.362 80.1978 153.661C83.2198 152.119 94.8513 154.031 117.202 174.013C125.034 181.229 143.549 195.476 154.946 195.476V224.709C150.874 226.969 145.837 231.925 142.365 236.77C136.683 244.696 132.874 254.567 135.704 262.083Z" fill="black" stroke="black"/>
<path d="M175.853 262.638C171.116 275.219 219.518 264.488 242.46 274.849C243.94 236.427 240.425 155.141 226.549 153.661C223.527 152.119 216.52 151.626 194.17 171.608C186.337 178.824 166.343 195.521 154.946 195.521V224.569C165.06 230.182 180.589 250.057 175.853 262.638Z" fill="black" stroke="black"/>
<path d="M115.537 308.972C144.4 314.893 182.884 315.448 195.28 310.822C182.726 323.127 167.95 335.143 154.761 334.505C136.538 333.623 121.011 316.056 115.537 308.972Z" fill="#AC4E4E"/>
<path d="M138.661 317.611C136.832 315.737 136.362 313.168 136.355 312.117C137.648 312.185 139.969 312.455 138.903 312.992C137.837 313.529 138.298 316.295 138.661 317.611Z" fill="white"/>
<path d="M171.071 318.576C173.114 316.938 173.894 314.446 174.029 313.404C172.737 313.314 170.401 313.299 171.393 313.962C172.386 314.625 171.592 317.314 171.071 318.576Z" fill="white"/>
<path d="M126.152 291.288L11.2354 280.77" stroke="#868383"/>
<path d="M126.386 291.174L11 292.725" stroke="#868383"/>
<path d="M126.622 291.518L11.8096 303.12" stroke="#868383"/>
<path d="M127.09 291.095L13.7261 312.659" stroke="#868383"/>
<path d="M195.848 291.288L310.765 280.77" stroke="#868383"/>
<path d="M195.614 291.174L311 292.725" stroke="#868383"/>
<path d="M195.378 291.518L310.19 303.12" stroke="#868383"/>
<path d="M194.91 291.095L308.274 312.659" stroke="#868383"/>
<path d="M127.895 255.245C122.31 262.642 115.757 265.326 102.766 265.251C92.6156 260.262 87.5098 255.5 85.577 247.02C91.0503 239.225 97.24 234.774 108.274 236.918C119.307 239.063 124.902 245.428 127.895 255.245Z" fill="#D9D9D9"/>
<path d="M120.622 262.083C125.062 257.939 122.472 247.035 120.622 242.656C108.189 232.295 96.816 236.427 92.4989 239.511C87.3183 243.359 87.5033 250.612 88.2434 253.757C90.7597 259.086 97.2196 264.673 103.045 265.413C111.651 266.507 118.34 263.44 120.622 262.083Z" fill="#A6BC4E"/>
<path d="M119.067 254.867C119.17 250.228 114.812 242.656 109.261 242.656C101.305 242.656 96.5412 250.029 96.8646 253.387C97.2828 257.729 102.23 262.638 107.596 263.748C115.182 263.748 118.998 257.95 119.067 254.867Z" fill="black" stroke="black"/>
<path d="M183.197 254.875C188.781 262.272 195.335 264.956 208.325 264.881C218.476 259.892 223.582 255.13 225.515 246.65C220.041 238.855 213.852 234.404 202.818 236.548C191.784 238.693 186.189 245.058 183.197 254.875Z" fill="#D9D9D9"/>
<path d="M190.47 261.713C186.029 257.569 188.62 246.665 190.47 242.286C202.903 231.925 214.276 236.057 218.593 239.141C223.774 242.989 223.588 250.242 222.848 253.387C220.332 258.716 213.872 264.303 208.047 265.043C199.441 266.137 192.752 263.07 190.47 261.713Z" fill="#A6BC4E"/>
<path d="M192.025 254.497C191.921 249.858 196.28 242.286 201.831 242.286C209.787 242.286 214.551 249.659 214.227 253.017C213.809 257.359 208.862 262.268 203.496 263.378C195.91 263.378 192.093 257.58 192.025 254.497Z" fill="black" stroke="black"/>
<path d="M154.946 301.677C146.509 303.009 141.809 289.281 140.514 282.25C149.691 282.25 155.686 295.202 154.946 301.677C161.902 284.359 168.329 283.36 170.672 285.026C168.452 299.383 159.263 302.109 154.946 301.677Z" fill="#E7B5B5"/>
<path d="M155.131 301.492C153.466 293.907 145.448 285.912 140.514 282.274C154.576 275.761 166.602 281.41 170.857 285.049C161.532 285.493 157.906 295.757 155.131 301.492Z" fill="#ECA2A2"/>
<path d="M78.9023 203.062C75.0538 189.74 80.5058 171.238 83.7128 163.652C96.6642 160.322 115.166 184.745 118.311 191.59C120.828 197.067 91.9153 202.877 78.9023 203.062Z" fill="#E7B5B5" stroke="black"/>
<path d="M229.663 202.817C233.511 189.495 228.059 170.993 224.852 163.408C211.901 160.077 193.399 184.5 190.253 191.346C187.737 196.822 216.65 202.632 229.663 202.817Z" fill="#E7B5B5" stroke="black"/>
<rect x="3.58594" y="38.6373" width="78.8283" height="73.5064" fill="#FFEEED" stroke="black"/>
<path d="M44.4592 2L3 38.309H83L44.4592 2Z" fill="#E29726" stroke="black" stroke-width="2"/>
<mask id="path-52-inside-1_91_361" fill="white">
<path d="M33.1289 77.279H53.0431V112.644H33.1289V77.279Z"/>
</mask>
<path d="M33.1289 77.279H53.0431V112.644H33.1289V77.279Z" fill="#612929"/>
<path d="M33.1289 77.279V74.279H30.1289V77.279H33.1289ZM53.0431 77.279H56.0431V74.279H53.0431V77.279ZM33.1289 80.279H53.0431V74.279H33.1289V80.279ZM50.0431 77.279V112.644H56.0431V77.279H50.0431ZM36.1289 112.644V77.279H30.1289V112.644H36.1289Z" fill="black" mask="url(#path-52-inside-1_91_361)"/>
<path d="M30.2405 60.7983C30.2405 65.8242 26.0925 69.927 20.9401 69.927C15.7877 69.927 11.6396 65.8242 11.6396 60.7983C11.6396 55.7724 15.7877 51.6695 20.9401 51.6695C26.0925 51.6695 30.2405 55.7724 30.2405 60.7983Z" fill="#52BDBD" stroke="black" stroke-width="2"/>
<path d="M76.0774 60.7983C76.0774 65.8242 71.9294 69.927 66.777 69.927C61.6246 69.927 57.4766 65.8242 57.4766 60.7983C57.4766 55.7724 61.6246 51.6695 66.777 51.6695C71.9294 51.6695 76.0774 55.7724 76.0774 60.7983Z" fill="#52BDBD" stroke="black" stroke-width="2"/>
<path d="M19.2231 70.8412V50.8412H22.0558V70.8412H19.2231Z" fill="black"/>
<path d="M30.9829 62.2575H10.9829V59.4249H30.9829V62.2575Z" fill="black"/>
<path d="M65.0601 70.6695V50.6695H67.8927V70.6695H65.0601Z" fill="black"/>
<path d="M76.8198 62.0858H56.8198V59.2532H76.8198V62.0858Z" fill="black"/>
<ellipse cx="49.8671" cy="96.3348" rx="1.28755" ry="1.37339" fill="#E2D989"/>
<path d="M183.33 34.0288C170.52 25.8647 157.069 38.4923 151.945 45.8267L146.666 112.428C190.835 81.6792 198.56 63.877 198.412 58.2776C198.305 54.1976 196.141 42.1929 183.33 34.0288Z" fill="#CE2222"/>
<path d="M122.581 33.9112C136.671 25.8165 148.129 38.5083 152.097 45.8661L146.892 112.468C107.581 81.5035 102.66 63.6687 103.689 58.0723C104.439 53.9945 108.491 42.0059 122.581 33.9112Z" fill="#CE2222"/>
</svg>
