<svg width="320" height="213" viewBox="0 0 320 213" fill="none" xmlns="http://www.w3.org/2000/svg">
<path d="M246.575 131.377C246.575 170.193 216.773 189.16 185.807 201.205C164.507 209.489 140.427 209.484 119.84 199.628C91.0081 185.823 62.8514 163.419 62.8514 125.259C62.8514 121.566 62.7828 116.831 62.7037 111.374C62.4031 90.6287 61.9512 59.4502 64.5426 35.48C65.7317 24.4812 71.2228 16.6173 78.495 13.1971C85.7563 9.78208 94.9052 10.7448 103.542 17.6251C106.009 19.591 108.519 21.6552 111.057 23.7436C116.981 28.6162 123.063 33.6198 129.145 37.8092C137.831 43.7926 146.625 48.1982 155.108 48.1982C162.179 48.1982 169.301 44.7399 176.321 39.8107C182.544 35.4406 188.747 29.8694 194.816 24.4183C195.597 23.7165 196.376 23.0168 197.152 22.3219C206.554 13.909 216.847 12.1571 225.212 15.5349C233.587 18.9165 240.156 27.4906 241.984 39.99C246.574 71.3805 246.575 112.779 246.575 131.377Z" fill="#FFF4F4" stroke="black"/>
<path d="M133.017 117.355C138.069 130.775 86.4413 121.105 62.7587 131.762C61.1799 90.7781 60.3905 5.65248 73.8106 1.70537C77.0341 0.0607511 89.4411 2.10008 113.282 23.4144C121.636 31.1112 141.385 46.3076 153.542 46.3076V77.4896C149.198 79.8998 143.826 85.1864 140.122 90.3542C134.061 98.8091 129.999 109.338 133.017 117.355Z" fill="black" stroke="black"/>
<path d="M175.843 117.947C170.791 131.367 222.419 119.921 246.891 130.973C248.47 89.9887 244.72 3.28423 229.918 1.70532C226.695 0.0606952 219.222 -0.465513 195.381 20.8488C187.026 28.5456 165.699 46.356 153.542 46.356V77.3407C164.331 83.3271 180.895 104.527 175.843 117.947Z" fill="black" stroke="black"/>
<path d="M119.202 171.43C129.267 184.456 157.371 202.691 189.263 171.43C178.475 176.299 149.358 183.114 119.202 171.43Z" fill="#AC4E4E"/>
<path d="M136.813 181.754C134.862 179.755 134.36 177.014 134.353 175.894C135.733 175.966 138.208 176.254 137.071 176.827C135.934 177.4 136.425 180.35 136.813 181.754Z" fill="white"/>
<path d="M170.79 181.693C172.842 179.798 173.487 177.088 173.553 175.97C172.171 175.97 169.685 176.127 170.79 176.759C171.895 177.391 171.25 180.311 170.79 181.693Z" fill="white"/>
<path d="M122.828 148.507L0.250488 137.288" stroke="#868383"/>
<path d="M123.079 148.386L0 150.041" stroke="#868383"/>
<path d="M123.329 148.752L0.863037 161.128" stroke="#868383"/>
<path d="M123.829 148.301L2.90796 171.303" stroke="#868383"/>
<path d="M197.172 148.507L319.75 137.288" stroke="#868383"/>
<path d="M196.921 148.386L320 150.041" stroke="#868383"/>
<path d="M196.671 148.752L319.137 161.128" stroke="#868383"/>
<path d="M196.171 148.301L317.092 171.303" stroke="#868383"/>
<path d="M124.687 110.062C118.731 117.951 111.74 120.814 97.8837 120.735C87.0562 115.413 81.61 110.334 79.5484 101.288C85.3866 92.9733 91.9889 88.2252 103.758 90.5129C115.527 92.8006 121.495 99.59 124.687 110.062Z" fill="#D9D9D9"/>
<path d="M116.93 117.355C121.666 112.935 118.903 101.304 116.93 96.633C103.667 85.5812 91.5366 89.9888 86.9317 93.278C81.4058 97.383 81.6031 105.119 82.3926 108.474C85.0766 114.158 91.9672 120.118 98.1809 120.908C107.361 122.074 114.496 118.803 116.93 117.355Z" fill="#A6BC4E"/>
<path d="M115.272 109.658C115.382 104.71 110.732 96.633 104.812 96.633C96.3255 96.633 91.244 104.498 91.5889 108.08C92.035 112.711 97.3122 117.947 103.035 119.131C111.127 119.131 115.198 112.947 115.272 109.658Z" fill="black" stroke="black"/>
<path d="M183.677 109.667C189.633 117.556 196.623 120.42 210.48 120.34C221.308 115.018 226.754 109.939 228.815 100.893C222.977 92.5785 216.375 87.8304 204.606 90.1181C192.836 92.4059 186.868 99.1953 183.677 109.667Z" fill="#D9D9D9"/>
<path d="M191.434 116.961C186.697 112.54 189.46 100.909 191.434 96.2383C204.696 85.1864 216.827 89.594 221.432 92.8833C226.958 96.9883 226.76 104.725 225.971 108.08C223.287 113.763 216.396 119.724 210.183 120.513C201.003 121.679 193.868 118.408 191.434 116.961Z" fill="#A6BC4E"/>
<path d="M193.092 109.264C192.982 104.315 197.631 96.2383 203.552 96.2383C212.038 96.2383 217.12 104.103 216.775 107.685C216.329 112.316 211.052 117.553 205.328 118.737C197.237 118.737 193.166 112.552 193.092 109.264Z" fill="black" stroke="black"/>
<path d="M153.542 159.589C144.543 161.01 139.53 146.366 138.148 138.867C147.937 138.867 154.332 152.682 153.542 159.589C160.963 141.117 167.817 140.051 170.317 141.827C167.949 157.142 158.147 160.05 153.542 159.589Z" fill="#E7B5B5"/>
<path d="M153.739 159.392C151.963 151.3 143.411 142.773 138.148 138.892C153.147 131.945 165.975 137.971 170.515 141.852C160.568 142.326 156.7 153.274 153.739 159.392Z" fill="#ECA2A2"/>
<path d="M72.4295 54.3991C68.3245 40.1896 74.1399 20.4541 77.5607 12.3625C91.3756 8.81015 111.111 34.861 114.466 42.1631C117.15 48.0048 86.3101 54.2017 72.4295 54.3991Z" fill="#E7B5B5" stroke="black"/>
<path d="M233.241 54.1381C237.346 39.9285 231.53 20.193 228.109 12.1015C214.295 8.5491 194.559 34.5999 191.204 41.9021C188.52 47.7438 219.36 53.9407 233.241 54.1381Z" fill="#E7B5B5" stroke="black"/>
</svg>
